# xmcd
#
# Track frame offsets:
#	150
#	24042
#	46619
#	76965
#	99744
#	125703
#	155390
#	187350
#	221073
#	251144
#	277687
#	306244
#
# Disc length: 4483 seconds
#
# Revision: 0
# Processed by: cddbd v1.5.2PL0 Copyright (c) Steve Scherf et al.
# Submitted via: audiograbber 1.83.01
#
DISCID=a011810c
DTITLE=CD Pool - Dance August 2012 CD1
DYEAR=2012
DGENRE=Dance
TTITLE0=Alex Gaudino Ft Taboo - I Don't Wanna Dance (Extended Mix)
TTITLE1=Little Mix - Wings (The Alias Extended Mix)
TTITLE2=Daisy Hicks - Electric Love (7th Heaven Club Mix)
TTITLE3=Luke Bingham - Shut It Down (Steve Smart and WestFunk Remix)
TTITLE4=NERVO - You're Gonna Love Again (Extended Mix)
TTITLE5=Calvin Harris Ft Example - We'll Be Coming Back (Extended Mix)
TTITLE6=Kylie Minogue - Timebomb (Steven Redant and Phil Romano Remix)
TTITLE7=Archeo - The Payback (Wideboys Club Mix)
TTITLE8=Marina and The Diamonds - Power and Control (Michael Woods Remix)
TTITLE9=Lawson - Taking Over Me (The Alias Club Mix)
TTITLE10=Chris Kaeser, StoneBridge and Krista Richards - Love Me (Big Room Mix)
TTITLE11=Matt Zarley - Anything Is Possible (7th Heaven Club Mix)
EXTD=
EXTT0=
EXTT1=
EXTT2=
EXTT3=
EXTT4=
EXTT5=
EXTT6=
EXTT7=
EXTT8=
EXTT9=
EXTT10=
EXTT11=
PLAYORDER=
